<svg width="201" height="31" viewBox="0 0 201 31" fill="none" xmlns="http://www.w3.org/2000/svg">
<path d="M24.0965 22.9983V22.805C24.0965 22.6118 23.9677 22.4185 23.7744 22.4185C24.0321 22.3541 24.0965 22.2252 24.0965 22.0319V21.9675C24.0965 21.6454 23.9677 21.4521 23.5167 21.4521H22.7437V23.3848H23.1302V22.6117H23.5167C23.71 22.6117 23.7744 22.7406 23.7744 22.8694V23.0627C23.7744 23.3204 23.8388 23.3848 24.1609 23.3848H24.2898V23.1271C24.0965 23.0627 24.0965 23.0627 24.0965 22.9983ZM23.4523 22.2896H23.1302V21.7098H23.5167C23.71 21.7098 23.7744 21.8387 23.7744 21.9675V22.0319C23.71 22.1608 23.5811 22.2896 23.4523 22.2896Z" fill="#F8F8F8"/>
<path d="M23.3876 20.2285C22.1636 20.2285 21.1973 21.1304 21.1973 22.3545C21.1973 23.5141 22.0348 24.5448 23.2588 24.5448C24.4828 24.5448 25.4491 23.6429 25.4491 22.4189C25.5136 21.2593 24.6116 20.2285 23.3876 20.2285ZM23.3232 24.2227C22.228 24.2227 21.5194 23.3208 21.5838 22.3545C21.5838 21.3237 22.3569 20.5506 23.452 20.5506C24.5472 20.5506 25.2559 21.3881 25.1914 22.4189C25.127 23.4496 24.354 24.2871 23.3232 24.2227Z" fill="#F8F8F8"/>
<path d="M19.2648 20.6151C21.4552 18.4892 22.6792 15.6546 22.7436 12.6268C22.808 9.59894 21.6484 6.69993 19.5869 4.50958C17.461 2.38364 14.6264 1.15962 11.5986 1.0952C5.28517 0.966352 0.131393 5.99129 0.00254889 12.2403C-0.0618734 15.2681 1.09773 18.1671 3.15924 20.3575C5.28518 22.5478 8.11975 23.7718 11.1476 23.8363C11.5341 23.8363 11.8562 23.8363 12.1784 23.8363C13.5312 23.7074 14.8841 23.3853 16.0437 22.8699C17.2677 22.2901 18.2985 21.5171 19.2648 20.6151ZM7.60438 8.76145C7.73322 9.53451 8.95724 11.596 9.79473 13.0777V13.1422C9.85916 13.2066 9.85916 13.271 9.85916 13.3354C9.988 13.5287 12.8226 18.4248 14.562 21.3882C13.5312 21.7103 12.3716 21.9036 11.212 21.9036C5.99382 21.8392 1.80637 17.4585 1.93522 12.3047C1.99964 9.92105 2.90155 7.66627 4.51211 5.99129C5.3496 5.08938 6.31593 4.38073 7.41111 3.86535C8.44187 3.4144 9.53704 3.09229 10.6322 3.02787C10.8255 3.02787 11.0188 3.02787 11.2764 3.02787C11.3409 3.02787 11.4697 3.02787 11.5341 3.02787C16.7523 3.15671 20.8754 7.473 20.8109 12.6268C20.7465 15.1393 19.7158 17.5229 17.9119 19.2623C17.3966 19.7777 16.7523 20.293 16.1081 20.6796C15.0774 17.9738 13.2735 12.6268 13.0158 11.9181L12.887 11.5316C12.436 10.2432 11.7274 8.11722 11.0832 7.21531C10.6322 6.63551 9.988 6.37782 9.27936 6.50667C9.08609 6.57109 8.89282 6.57109 8.69956 6.69993C8.69956 6.69993 8.63513 6.69993 8.63513 6.76436C8.44187 6.82878 8.31302 6.95762 8.18418 7.02205C8.11976 7.08647 8.05533 7.15089 7.99091 7.21531L7.92649 7.27974C7.92649 7.27974 7.92649 7.34416 7.86207 7.34416C7.79764 7.40858 7.79764 7.40858 7.73322 7.473C7.53996 7.85954 7.47553 8.31049 7.60438 8.76145Z" fill="#F8F8F8"/>
<path d="M19.3291 22.8057L14.2397 25.1249L15.2705 27.3152L20.3599 24.996L19.3291 22.8057Z" fill="#F8F8F8"/>
<path d="M15.8506 28.6034L16.8813 30.7937L21.9707 28.4745L20.9399 26.2842L15.8506 28.6034Z" fill="#F8F8F8"/>
<path d="M33.1802 14.2378C33.6311 16.106 34.9196 16.9435 37.1099 16.9435C39.2359 16.9435 40.2022 16.106 40.2022 14.7531C40.2022 13.207 39.3003 12.5628 36.1436 11.8541C31.0542 10.6945 29.8302 8.82628 29.8302 6.31382C29.8302 3.0927 32.2783 0.902344 36.659 0.902344C41.5551 0.902344 43.5522 3.54366 43.8099 6.24939H39.7513C39.558 5.08979 38.9138 3.86577 36.5301 3.86577C34.9196 3.86577 33.8888 4.50999 33.8888 5.86286C33.8888 7.1513 34.6619 7.66668 37.6897 8.37533C43.1012 9.66377 44.2608 11.6609 44.2608 14.3022C44.2608 17.6521 41.6839 20.0358 36.7878 20.0358C32.085 20.0358 29.5725 17.7166 29.1216 14.3022H33.1802V14.2378Z" fill="#F8F8F8"/>
<path d="M44.8403 5.73353H47.0307V1.93262H50.896V5.73353H53.6662V8.63253H50.896V15.5257C50.896 16.5565 51.2181 17.0074 52.3777 17.0074C52.571 17.0074 52.9575 17.0074 53.2152 17.0074V19.6487C52.4422 19.9064 51.4114 19.9064 50.6383 19.9064C47.9326 19.9064 47.0307 18.4247 47.0307 15.9767V8.63253H44.9048V5.73353H44.8403Z" fill="#F8F8F8"/>
<path d="M58.2403 13.5293C58.2403 15.2687 59.1422 17.0081 61.0105 17.0081C62.621 17.0081 63.072 16.3639 63.4585 15.5264H67.3239C66.8085 17.2014 65.3268 20.036 60.9461 20.036C56.3721 20.036 54.375 16.6216 54.375 12.9495C54.375 8.5688 56.6298 5.41211 61.1393 5.41211C65.9066 5.41211 67.5171 8.89091 67.5171 12.3697C67.5171 12.8851 67.5171 13.1428 67.4527 13.5293H58.2403ZM63.6518 11.1457C63.6518 9.53513 63.0076 8.18227 61.0749 8.18227C59.2711 8.18227 58.498 9.47071 58.3048 11.1457H63.6518Z" fill="#F8F8F8"/>
<path d="M69.6431 9.53513C69.6431 8.11785 69.6431 6.89382 69.6431 5.73422H73.444C73.5084 6.05633 73.5728 7.4092 73.5728 8.18227C74.217 6.57171 75.6988 5.41211 78.018 5.41211V9.08418C75.2478 9.01976 73.5728 9.7284 73.5728 13.5937V19.7139H69.7075V9.53513H69.6431Z" fill="#F8F8F8"/>
<path d="M79.564 9.21202C79.564 8.05241 79.564 6.76397 79.564 5.66879H83.3005C83.3649 6.05532 83.4293 7.02166 83.4937 7.47261C83.9447 6.63513 85.1043 5.34668 87.5523 5.34668C90.3225 5.34668 92.1263 7.27935 92.1263 10.7582V19.6484H88.261V11.2091C88.261 9.59855 87.7456 8.50337 86.0062 8.50337C84.3956 8.50337 83.4293 9.40528 83.4293 11.9178V19.6484H79.564V9.21202Z" fill="#F8F8F8"/>
<path d="M98.0533 13.5293C98.0533 15.2687 98.9552 17.0081 100.823 17.0081C102.434 17.0081 102.885 16.3639 103.272 15.5264H107.137C106.621 17.2014 105.14 20.036 100.759 20.036C96.1851 20.036 94.188 16.6216 94.188 12.9495C94.188 8.5688 96.4428 5.41211 100.952 5.41211C105.72 5.41211 107.33 8.89091 107.33 12.3697C107.33 12.8851 107.33 13.1428 107.266 13.5293H98.0533ZM103.4 11.1457C103.4 9.53513 102.756 8.18227 100.823 8.18227C99.0197 8.18227 98.2466 9.47071 98.0533 11.1457H103.4Z" fill="#F8F8F8"/>
<path d="M113.386 1.0957H117.316V9.34175C118.54 7.92446 122.405 3.73702 124.724 1.0957H129.491L122.018 8.82638L129.749 19.7137H124.982L119.248 11.4677L117.251 13.3359V19.7137H113.386V1.0957Z" fill="#F8F8F8"/>
<path d="M133.357 13.5293C133.357 15.2687 134.258 17.0081 136.127 17.0081C137.737 17.0081 138.188 16.3639 138.575 15.5264H142.44C141.925 17.2014 140.443 20.036 136.062 20.036C131.488 20.036 129.491 16.6216 129.491 12.9495C129.491 8.5688 131.746 5.41211 136.256 5.41211C141.023 5.41211 142.633 8.89091 142.633 12.3697C142.633 12.8851 142.633 13.1428 142.569 13.5293H133.357ZM138.768 11.1457C138.768 9.53513 138.124 8.18227 136.191 8.18227C134.387 8.18227 133.614 9.47071 133.421 11.1457H138.768Z" fill="#F8F8F8"/>
<path d="M147.658 15.461C147.98 16.6206 148.882 17.2004 150.3 17.2004C151.717 17.2004 152.232 16.685 152.232 15.8475C152.232 14.9456 151.653 14.6235 149.655 14.1081C145.081 12.9485 144.373 11.5956 144.373 9.59855C144.373 7.53704 145.79 5.34668 149.978 5.34668C154.229 5.34668 155.647 7.66588 155.776 9.53413H152.103C151.975 9.01875 151.588 8.05241 149.784 8.05241C148.496 8.05241 148.109 8.63222 148.109 9.21202C148.109 9.92066 148.56 10.2428 150.815 10.7582C155.453 11.8533 156.162 13.3995 156.162 15.461C156.162 17.7802 154.358 19.9061 150.171 19.9061C145.919 19.9061 144.18 17.8446 143.857 15.3966H147.658V15.461Z" fill="#F8F8F8"/>
<path d="M160.994 15.461C161.316 16.6206 162.218 17.2004 163.635 17.2004C165.052 17.2004 165.568 16.685 165.568 15.8475C165.568 14.9456 164.988 14.6235 162.991 14.1081C158.417 12.9485 157.708 11.5956 157.708 9.59855C157.708 7.53704 159.126 5.34668 163.313 5.34668C167.565 5.34668 168.982 7.66588 169.111 9.53413H165.439C165.31 9.01875 164.924 8.05241 163.12 8.05241C161.831 8.05241 161.445 8.63222 161.445 9.21202C161.445 9.92066 161.896 10.2428 164.15 10.7582C168.789 11.8533 169.498 13.3995 169.498 15.461C169.498 17.7802 167.694 19.9061 163.506 19.9061C159.254 19.9061 157.515 17.8446 157.193 15.3966H160.994V15.461Z" fill="#F8F8F8"/>
<path d="M171.366 19.6488V0H175.231V19.6488H171.366Z" fill="#F8F8F8"/>
<path d="M181.222 13.5293C181.222 15.2687 182.124 17.0081 183.992 17.0081C185.603 17.0081 186.054 16.3639 186.44 15.5264H190.306C189.79 17.2014 188.309 20.036 183.928 20.036C179.354 20.036 177.357 16.6216 177.357 12.9495C177.357 8.5688 179.612 5.41211 184.121 5.41211C188.889 5.41211 190.499 8.89091 190.499 12.3697C190.499 12.8851 190.499 13.1428 190.435 13.5293H181.222ZM186.634 11.1457C186.634 9.53513 185.99 8.18227 184.057 8.18227C182.253 8.18227 181.48 9.47071 181.287 11.1457H186.634Z" fill="#F8F8F8"/>
<path d="M192.625 9.53513C192.625 8.11785 192.625 6.89382 192.625 5.73422H196.426C196.49 6.05633 196.555 7.4092 196.555 8.18227C197.199 6.57171 198.681 5.41211 201 5.41211V9.08418C198.23 9.01976 196.555 9.7284 196.555 13.5937V19.7139H192.689V9.53513H192.625Z" fill="#F8F8F8"/>
<path d="M30.2807 29.119C30.4096 29.7632 30.8605 30.0854 31.6336 30.0854C32.4067 30.0854 32.7288 29.7633 32.7288 29.2479C32.7288 28.7325 32.4711 28.4748 31.3759 28.2171C29.8298 27.8306 29.3788 27.3152 29.3788 26.4777C29.3788 25.5114 30.0875 24.8027 31.5048 24.8027C33.0509 24.8027 33.6307 25.6402 33.6951 26.4777H32.5999C32.5355 26.0268 32.2778 25.6402 31.5048 25.6402C30.9249 25.6402 30.5384 25.8979 30.5384 26.3489C30.5384 26.7998 30.7961 26.9931 31.8269 27.2508C33.5663 27.6373 33.8884 28.2815 33.8884 29.119C33.8884 30.1498 33.1153 30.9229 31.5692 30.9229C30.0875 30.9229 29.3144 30.1498 29.1855 29.119H30.2807Z" fill="#F8F8F8"/>
<path d="M36.7877 25.7691H34.9194V24.8672H39.6867V25.7691H37.8184V30.794H36.7233V25.7691H36.7877Z" fill="#F8F8F8"/>
<path d="M45.2915 28.1527H42.3925V29.8921H45.5492L45.4204 30.794H41.2974V24.8672H45.4204V25.7691H42.3925V27.2508H45.2915V28.1527Z" fill="#F8F8F8"/>
<path d="M48.3838 28.346V30.794H47.2886V24.8672H49.801C51.0895 24.8672 51.7337 25.5758 51.7337 26.4777C51.7337 27.2508 51.2828 27.7018 50.8318 27.895C51.2183 28.0239 51.6049 28.346 51.6049 29.3767V29.6344C51.6049 30.021 51.6049 30.5363 51.6693 30.794H50.5741C50.4453 30.5363 50.4453 30.0854 50.4453 29.5056V29.3767C50.4453 28.6681 50.252 28.346 49.2857 28.346H48.3838ZM48.3838 27.4441H49.5434C50.3164 27.4441 50.6385 27.122 50.6385 26.6066C50.6385 26.0912 50.3164 25.7691 49.6078 25.7691H48.3838V27.4441Z" fill="#F8F8F8"/>
<path d="M53.6665 30.794V24.8672H55.0838C55.8569 26.2201 57.403 28.7969 57.7251 29.4412C57.6607 28.7969 57.6607 27.7662 57.6607 26.7999V24.8672H58.6914V30.794H57.3386C56.6299 29.57 54.9549 26.671 54.6328 25.9624C54.6973 26.5422 54.6973 27.7018 54.6973 28.7325V30.7296H53.6665V30.794Z" fill="#F8F8F8"/>
<path d="M64.8755 28.1527H61.9765V29.8921H65.1332L65.0044 30.794H60.8813V24.8672H65.0044V25.7691H61.9765V27.2508H64.8755V28.1527Z" fill="#F8F8F8"/>
<path d="M69.7075 24.8672H70.8027V27.6373C71.1892 27.1864 72.5421 25.7691 73.3796 24.8672H74.7325L72.2844 27.3797L74.8613 30.8585H73.444L71.4469 28.0883L70.8027 28.7325V30.8585H69.7075V24.8672Z" fill="#F8F8F8"/>
<path d="M80.2085 28.1527H77.3095V29.8921H80.4662L80.3374 30.794H76.2144V24.8672H80.3374V25.7691H77.3095V27.2508H80.2085V28.1527Z" fill="#F8F8F8"/>
<path d="M82.9785 29.119C83.1073 29.7632 83.5583 30.0854 84.3313 30.0854C85.1044 30.0854 85.4265 29.7633 85.4265 29.2479C85.4265 28.7325 85.1688 28.4748 84.0737 28.2171C82.5275 27.8306 82.0766 27.3152 82.0766 26.4777C82.0766 25.5114 82.7852 24.8027 84.2025 24.8027C85.7486 24.8027 86.3284 25.6402 86.3929 26.4777H85.2977C85.2333 26.0268 84.9756 25.6402 84.2025 25.6402C83.6227 25.6402 83.2362 25.8979 83.2362 26.3489C83.2362 26.7998 83.4939 26.9931 84.5246 27.2508C86.264 27.6373 86.5861 28.2815 86.5861 29.119C86.5861 30.1498 85.8131 30.9229 84.2669 30.9229C82.7852 30.9229 82.0121 30.1498 81.8833 29.119H82.9785Z" fill="#F8F8F8"/>
<path d="M89.0986 29.119C89.2274 29.7632 89.6784 30.0854 90.4515 30.0854C91.2245 30.0854 91.5466 29.7633 91.5466 29.2479C91.5466 28.7325 91.2889 28.4748 90.1938 28.2171C88.6476 27.8306 88.1967 27.3152 88.1967 26.4777C88.1967 25.5114 88.9053 24.8027 90.3226 24.8027C91.8687 24.8027 92.4486 25.6402 92.513 26.4777H91.4178C91.3534 26.0268 91.0957 25.6402 90.3226 25.6402C89.7428 25.6402 89.3563 25.8979 89.3563 26.3489C89.3563 26.7998 89.614 26.9931 90.6447 27.2508C92.3841 27.6373 92.7062 28.2815 92.7062 29.119C92.7062 30.1498 91.9332 30.9229 90.387 30.9229C88.9053 30.9229 88.1323 30.1498 88.0034 29.119H89.0986Z" fill="#F8F8F8"/>
<path d="M94.4458 24.8672H95.541V29.8921H98.5688L98.44 30.794H94.4458V24.8672Z" fill="#F8F8F8"/>
<path d="M104.044 28.1527H101.145V29.8921H104.302L104.173 30.794H100.05V24.8672H104.173V25.7691H101.145V27.2508H104.044V28.1527Z" fill="#F8F8F8"/>
<path d="M107.137 28.346V30.794H106.042V24.8672H108.554C109.842 24.8672 110.487 25.5758 110.487 26.4777C110.487 27.2508 110.036 27.7018 109.585 27.895C109.971 28.0239 110.358 28.346 110.358 29.3767V29.6344C110.358 30.021 110.358 30.5363 110.422 30.794H109.327C109.198 30.5363 109.198 30.0854 109.198 29.5056V29.3767C109.198 28.6681 109.005 28.346 108.039 28.346H107.137ZM107.137 27.4441H108.296C109.069 27.4441 109.391 27.122 109.391 26.6066C109.391 26.0912 109.069 25.7691 108.361 25.7691H107.137V27.4441Z" fill="#F8F8F8"/>
<path d="M120.343 30.794H119.506C119.441 30.6007 119.441 30.4074 119.441 30.1498C119.119 30.6007 118.604 30.9228 117.637 30.9228C115.898 30.9228 114.996 29.6344 114.996 27.895C114.996 26.0911 116.027 24.7383 117.831 24.7383C119.312 24.7383 120.214 25.5758 120.343 26.6065H119.248C119.119 26.0911 118.733 25.6402 117.831 25.6402C116.542 25.6402 116.156 26.6709 116.156 27.8305C116.156 28.9257 116.607 29.9565 117.831 29.9565C118.99 29.9565 119.248 29.119 119.248 28.4748V28.4103H117.831V27.5084H120.343V30.794Z" fill="#F8F8F8"/>
<path d="M127.816 27.8305C127.816 29.5055 126.85 30.9228 124.917 30.9228C123.113 30.9228 122.083 29.57 122.083 27.8305C122.083 26.0911 123.113 24.7383 124.982 24.7383C126.721 24.8027 127.816 26.0267 127.816 27.8305ZM123.242 27.8305C123.242 29.0546 123.822 30.0209 124.917 30.0209C126.141 30.0209 126.592 28.9901 126.592 27.895C126.592 26.7354 126.077 25.769 124.917 25.769C123.757 25.7046 123.242 26.6065 123.242 27.8305Z" fill="#F8F8F8"/>
<path d="M129.685 24.8672H130.78V29.8921H133.808L133.679 30.794H129.685V24.8672Z" fill="#F8F8F8"/>
<path d="M135.353 24.8672H137.608C139.348 24.8672 140.443 26.0268 140.443 27.7662C140.443 29.5056 139.348 30.794 137.544 30.794H135.289V24.8672H135.353ZM136.449 29.8921H137.544C138.768 29.8921 139.348 28.9902 139.348 27.7662C139.348 26.7354 138.832 25.7691 137.544 25.7691H136.449V29.8921Z" fill="#F8F8F8"/>
<path d="M143.02 29.119C143.149 29.7632 143.6 30.0854 144.373 30.0854C145.146 30.0854 145.468 29.7633 145.468 29.2479C145.468 28.7325 145.21 28.4748 144.115 28.2171C142.569 27.8306 142.118 27.3152 142.118 26.4777C142.118 25.5114 142.827 24.8027 144.244 24.8027C145.79 24.8027 146.37 25.6402 146.434 26.4777H145.339C145.275 26.0268 145.017 25.6402 144.244 25.6402C143.664 25.6402 143.278 25.8979 143.278 26.3489C143.278 26.7998 143.535 26.9931 144.566 27.2508C146.306 27.6373 146.628 28.2815 146.628 29.119C146.628 30.1498 145.855 30.9229 144.308 30.9229C142.827 30.9229 142.054 30.1498 141.925 29.119H143.02Z" fill="#F8F8F8"/>
<path d="M149.591 25.7691H147.723V24.8672H152.49V25.7691H150.622V30.794H149.526V25.7691H149.591Z" fill="#F8F8F8"/>
<path d="M158.03 28.1527H155.131V29.8921H158.288L158.159 30.794H154.036V24.8672H158.159V25.7691H155.131V27.2508H158.03V28.1527Z" fill="#F8F8F8"/>
<path d="M161.187 24.8672V30.794H160.092V24.8672H161.187Z" fill="#F8F8F8"/>
<path d="M163.377 30.794V24.8672H164.795C165.568 26.2201 167.114 28.7969 167.436 29.4412C167.372 28.7969 167.372 27.7662 167.372 26.7999V24.8672H168.402V30.794H167.049C166.341 29.57 164.666 26.671 164.344 25.9624C164.408 26.5422 164.408 27.7018 164.408 28.7325V30.7296H163.377V30.794Z" fill="#F8F8F8"/>
<path d="M178.903 27.1219L177.357 29.3123L178.968 30.8584H177.551L176.778 30.0854C176.327 30.6007 175.811 30.9229 174.974 30.9229C173.75 30.9229 173.105 30.0854 173.105 29.3123C173.105 28.6681 173.363 28.2171 174.329 27.6373C173.943 27.2508 173.685 26.8642 173.685 26.3489C173.685 25.5114 174.329 24.8027 175.296 24.8027C176.262 24.8027 176.842 25.447 176.842 26.22C176.842 26.7998 176.52 27.1864 175.747 27.7017L176.713 28.6681L177.808 27.1219H178.903ZM176.133 29.4411L174.845 28.1527C174.394 28.4748 174.201 28.7325 174.201 29.119C174.201 29.57 174.523 29.9565 175.038 29.9565C175.489 30.0209 175.747 29.8277 176.133 29.4411ZM174.652 26.22C174.652 26.5421 174.845 26.7998 175.231 27.1219C175.811 26.7354 175.94 26.4777 175.94 26.1556C175.94 25.8335 175.747 25.447 175.296 25.447C174.909 25.5114 174.652 25.8335 174.652 26.22Z" fill="#F8F8F8"/>
<path d="M183.606 24.8672H187.665V25.7691H184.701V27.3797H187.471V28.346H184.701V30.794H183.606V24.8672Z" fill="#F8F8F8"/>
<path d="M194.816 27.8305C194.816 29.5055 193.849 30.9228 191.917 30.9228C190.113 30.9228 189.082 29.57 189.082 27.8305C189.082 26.0911 190.113 24.7383 191.981 24.7383C193.72 24.8027 194.816 26.0267 194.816 27.8305ZM190.242 27.8305C190.242 29.0546 190.821 30.0209 191.917 30.0209C193.141 30.0209 193.592 28.9901 193.592 27.895C193.592 26.7354 193.076 25.769 191.917 25.769C190.757 25.7046 190.242 26.6065 190.242 27.8305Z" fill="#F8F8F8"/>
<path d="M199.711 30.794L198.359 28.6036L196.941 30.794H195.717L197.714 27.7662L195.782 24.8027H197.07L198.359 26.8642L199.711 24.8027H200.935L199.003 27.6373L201 30.7296H199.711V30.794Z" fill="#F8F8F8"/>
</svg>
