<svg width="89" height="31" viewBox="0 0 89 31" fill="none" xmlns="http://www.w3.org/2000/svg">
<path d="M3.62172 29.8367C3.01999 29.6835 2.46093 29.3956 1.98672 28.9947C1.53668 28.597 1.19558 28.0911 0.995716 27.5247C0.759123 26.825 0.647422 26.0891 0.665716 25.3507C0.665716 25.192 0.672716 25.011 0.686716 24.8077C0.700716 24.6044 0.725716 24.3877 0.761716 24.1577C0.79705 23.9304 0.832716 23.6994 0.868716 23.4647C0.904716 23.23 0.943716 23.0204 0.985716 22.8357L2.84272 13.5607H0.537716C0.460445 13.5669 0.382847 13.5536 0.312071 13.522C0.241295 13.4904 0.179616 13.4414 0.132716 13.3797C0.0272185 13.1645 -0.0167336 12.9243 0.00571622 12.6857C0.011289 12.3671 0.0363358 12.0492 0.0807162 11.7337C0.129495 11.3446 0.210779 10.9603 0.323716 10.5847C0.422377 10.2403 0.573481 9.91313 0.771716 9.61471C0.838111 9.49614 0.933864 9.39662 1.04979 9.3257C1.16571 9.25478 1.29792 9.21484 1.43372 9.20971H3.71772L4.57072 4.96771C4.59971 4.82336 4.66906 4.69021 4.77072 4.58371C4.91125 4.45188 5.08081 4.35493 5.26572 4.30071C5.54249 4.21097 5.82873 4.15358 6.11872 4.12971C6.46738 4.09438 6.90505 4.07671 7.43172 4.07671C7.859 4.073 8.2862 4.09069 8.71172 4.12971C8.98312 4.14904 9.25042 4.2066 9.50572 4.30071C9.65855 4.35318 9.78994 4.45435 9.87972 4.58871C9.94403 4.70583 9.9629 4.84255 9.93272 4.97271L9.07872 9.21071H13.1977C13.2937 9.19956 13.3909 9.21603 13.4779 9.25819C13.5649 9.30035 13.638 9.36644 13.6887 9.44871C13.7858 9.66238 13.8297 9.89638 13.8167 10.1307C13.8135 10.3124 13.7992 10.4938 13.7737 10.6737C13.745 10.8944 13.706 11.1324 13.6567 11.3877C13.6066 11.6477 13.5398 11.9043 13.4567 12.1557C13.3788 12.3935 13.2825 12.6248 13.1687 12.8477C13.0751 13.036 12.953 13.2087 12.8067 13.3597C12.751 13.4209 12.6835 13.4702 12.6082 13.5046C12.5329 13.539 12.4515 13.5577 12.3687 13.5597H8.20072L6.40572 22.4917C6.36305 22.703 6.32405 22.9554 6.28872 23.2487C6.25713 23.4855 6.23943 23.7239 6.23572 23.9627C6.21584 24.1871 6.24146 24.4132 6.31105 24.6275C6.38064 24.8418 6.49277 25.0398 6.64072 25.2097C6.99923 25.505 7.45889 25.6485 7.92172 25.6097C8.21449 25.6138 8.50694 25.5887 8.79472 25.5347C9.00848 25.4926 9.219 25.4355 9.42472 25.3637C9.60272 25.297 9.75572 25.24 9.88372 25.1927C9.99871 25.1456 10.1215 25.1201 10.2457 25.1177C10.3031 25.1184 10.3594 25.1333 10.4097 25.161C10.4599 25.1888 10.5025 25.2285 10.5337 25.2767C10.6249 25.4351 10.6657 25.6175 10.6507 25.7997C10.6471 26.1072 10.6183 26.4139 10.5647 26.7167C10.5093 27.0514 10.4345 27.3826 10.3407 27.7087C10.2561 28.0059 10.1529 28.2975 10.0317 28.5817C9.94776 28.7975 9.82508 28.9961 9.66972 29.1677C9.50056 29.3219 9.30514 29.4445 9.09272 29.5297C8.79984 29.6563 8.49632 29.7567 8.18572 29.8297C7.81618 29.9178 7.4419 29.9845 7.06472 30.0297C6.66964 30.0792 6.27188 30.1043 5.87372 30.1047C5.11453 30.1161 4.3572 30.0263 3.62172 29.8377V29.8367ZM26.2217 29.7617C25.9461 29.7472 25.6735 29.6971 25.4107 29.6127C25.2462 29.5603 25.0987 29.4646 24.9837 29.3357C24.8865 29.2102 24.8182 29.0647 24.7837 28.9097L20.2837 18.8887L18.2707 28.9527C18.2287 29.094 18.1517 29.2223 18.0467 29.3257C17.906 29.4516 17.7379 29.543 17.5557 29.5927C17.2736 29.6753 16.9837 29.7285 16.6907 29.7517C16.3347 29.787 15.9014 29.8047 15.3907 29.8047C14.9598 29.8089 14.5289 29.7912 14.0997 29.7517C13.8354 29.7302 13.5743 29.6803 13.3207 29.6027C13.171 29.5643 13.0392 29.4753 12.9477 29.3507C12.8827 29.2378 12.8637 29.1042 12.8947 28.9777L18.5237 0.920709C18.5524 0.777914 18.6187 0.645359 18.7157 0.536709C18.8519 0.400635 19.0206 0.301516 19.2057 0.248709C19.487 0.15811 19.7769 0.0964571 20.0707 0.0647094C20.5077 0.0174053 20.9472 -0.0039655 21.3867 0.000709414C21.818 -0.00428423 22.2491 0.017089 22.6777 0.0647094C22.9441 0.0910874 23.206 0.151929 23.4567 0.245709C23.6074 0.296304 23.7355 0.398241 23.8187 0.533709C23.8763 0.6531 23.8915 0.788543 23.8617 0.917709L20.5317 17.6097L27.6607 9.99471C27.7956 9.83109 27.9497 9.68436 28.1197 9.55771C28.3105 9.42435 28.524 9.32676 28.7497 9.26971C29.0537 9.19102 29.3644 9.14113 29.6777 9.12071C30.0404 9.09204 30.4924 9.07771 31.0337 9.07771C31.5624 9.07771 32.0034 9.09204 32.3567 9.12071C32.6383 9.13658 32.9173 9.18319 33.1887 9.25971C33.348 9.29821 33.4928 9.3819 33.6057 9.50071C33.6827 9.59758 33.724 9.71798 33.7227 9.84171C33.7023 10.1298 33.6026 10.4067 33.4347 10.6417C33.1533 11.0572 32.8347 11.4461 32.4827 11.8037L25.7597 18.1347L30.1347 27.3017C30.2605 27.5925 30.3608 27.8936 30.4347 28.2017C30.4838 28.3982 30.5126 28.5993 30.5207 28.8017C30.5236 28.9618 30.4749 29.1185 30.3817 29.2487C30.2584 29.397 30.0954 29.5069 29.9117 29.5657C29.6211 29.6657 29.3184 29.7265 29.0117 29.7467C28.6344 29.782 28.1614 29.7997 27.5927 29.7997C27.024 29.7997 26.5657 29.7877 26.2177 29.7637L26.2217 29.7617Z" fill="#0755E9"/>
<path d="M53.2037 29.7407C52.2685 29.4992 51.3976 29.0555 50.6527 28.4407C49.9585 27.8416 49.4297 27.0745 49.1167 26.2127C48.7534 25.1817 48.5796 24.0935 48.6037 23.0007C48.61 21.9755 48.6993 20.9525 48.8707 19.9417C49.0518 18.8427 49.3416 17.7644 49.7357 16.7227C50.1369 15.6577 50.6519 14.6391 51.2717 13.6847C51.8923 12.7245 52.6577 11.866 53.5407 11.1397C54.4661 10.3873 55.5095 9.79298 56.6287 9.38069C57.9085 8.92126 59.2611 8.69764 60.6207 8.72069C61.7511 8.69726 62.8783 8.85182 63.9607 9.17869C64.7981 9.43161 65.579 9.84344 66.2607 10.3917C66.8297 10.8601 67.2854 11.4512 67.5937 12.1207C67.8808 12.746 68.0302 13.4256 68.0317 14.1137C68.0462 15.0789 67.8069 16.0311 67.3377 16.8747C66.8139 17.7532 66.071 18.4806 65.1817 18.9857C64.0284 19.6422 62.7729 20.0999 61.4677 20.3397C59.6988 20.6769 57.9003 20.834 56.0997 20.8087H54.1327C54.0753 21.136 54.0327 21.4594 54.0047 21.7787C53.9767 22.098 53.9623 22.3927 53.9617 22.6627C53.9269 23.1345 53.9887 23.6085 54.1435 24.0555C54.2982 24.5026 54.5426 24.9134 54.8617 25.2627C55.6727 25.9167 56.7061 26.2297 57.7437 26.1357C58.5913 26.1443 59.438 26.0773 60.2737 25.9357C60.9356 25.8206 61.5911 25.6714 62.2377 25.4887C62.7997 25.3254 63.2663 25.1764 63.6377 25.0417C63.8961 24.9336 64.1697 24.8662 64.4487 24.8417C64.5166 24.8349 64.5852 24.845 64.6483 24.8709C64.7114 24.8969 64.7672 24.9381 64.8107 24.9907C64.8926 25.1327 64.9299 25.2962 64.9177 25.4597C64.915 25.7378 64.8936 26.0154 64.8537 26.2907C64.8108 26.6029 64.75 26.9124 64.6717 27.2177C64.5965 27.5144 64.4961 27.8041 64.3717 28.0837C64.2766 28.3159 64.1351 28.5262 63.9557 28.7017C63.6793 28.9324 63.3603 29.1063 63.0167 29.2137C62.4801 29.4077 61.9308 29.5644 61.3727 29.6827C60.6604 29.8365 59.9408 29.954 59.2167 30.0347C58.4087 30.1278 57.596 30.1742 56.7827 30.1737C55.5764 30.1928 54.3732 30.0485 53.2057 29.7447L53.2037 29.7407ZM58.2187 12.9197C57.6668 13.1695 57.1658 13.5191 56.7407 13.9507C56.2991 14.4043 55.9283 14.9217 55.6407 15.4857C55.3301 16.0873 55.0834 16.7197 54.9047 17.3727H56.6977C57.6559 17.3875 58.6134 17.3125 59.5577 17.1487C60.2037 17.0403 60.8297 16.8354 61.4147 16.5407C61.83 16.334 62.1835 16.0215 62.4397 15.6347C62.6486 15.299 62.7585 14.9111 62.7567 14.5157C62.7605 14.2437 62.7018 13.9745 62.5851 13.7289C62.4684 13.4832 62.2969 13.2676 62.0837 13.0987C61.5197 12.6859 60.8279 12.4858 60.1307 12.5337C59.4743 12.5236 58.8235 12.6552 58.2227 12.9197H58.2187ZM69.7837 29.7517C69.5184 29.7313 69.2567 29.6779 69.0047 29.5927C68.854 29.5473 68.7225 29.4535 68.6307 29.3257C68.5657 29.2128 68.5467 29.0792 68.5777 28.9527L74.1917 0.917688C74.2203 0.774876 74.2866 0.64231 74.3837 0.533688C74.5202 0.397468 74.6892 0.29834 74.8747 0.245688C75.1564 0.15604 75.4466 0.0953921 75.7407 0.064688C76.176 0.0175784 76.6138 -0.00379209 77.0517 0.00068795C77.4823 -0.00422172 77.9127 0.0171513 78.3407 0.064688C78.6074 0.0909806 78.8696 0.151823 79.1207 0.245688C79.2714 0.296206 79.3996 0.398162 79.4827 0.533688C79.5403 0.653056 79.5555 0.788526 79.5257 0.917688L73.9357 28.9527C73.908 29.0943 73.8383 29.2243 73.7357 29.3257C73.5981 29.4501 73.4339 29.5415 73.2557 29.5927C72.9778 29.676 72.6919 29.7293 72.4027 29.7517C72.0467 29.787 71.6133 29.8047 71.1027 29.8047C70.6624 29.8094 70.2222 29.7917 69.7837 29.7517ZM42.4177 29.7627C42.1497 29.7468 41.884 29.7039 41.6247 29.6347C41.476 29.6015 41.3437 29.5173 41.2507 29.3967C41.1844 29.2922 41.1373 29.1767 41.1117 29.0557L38.8117 22.3427L33.9897 29.0797C33.9091 29.2025 33.8122 29.3139 33.7017 29.4107C33.5436 29.526 33.3607 29.6027 33.1677 29.6347C32.8439 29.7014 32.5157 29.7441 32.1857 29.7627C31.7803 29.7907 31.236 29.805 30.5527 29.8057C29.9407 29.8057 29.4497 29.788 29.0797 29.7527C28.7997 29.7399 28.5247 29.6747 28.2687 29.5607C28.1961 29.5346 28.1342 29.485 28.0929 29.4198C28.0516 29.3546 28.0332 29.2775 28.0407 29.2007C28.0893 28.9894 28.1801 28.79 28.3077 28.6147L35.5477 19.1497L32.3657 10.3617C32.2868 10.162 32.2573 9.94622 32.2797 9.73269C32.2981 9.64408 32.3378 9.56131 32.3955 9.4916C32.4532 9.42188 32.5271 9.36732 32.6107 9.33269C32.896 9.21163 33.201 9.14385 33.5107 9.13269C33.916 9.09735 34.4533 9.07969 35.1227 9.07969C35.7047 9.07969 36.1633 9.09035 36.4987 9.11169C36.7573 9.12436 37.0144 9.1578 37.2677 9.21169C37.4085 9.23258 37.537 9.3036 37.6297 9.41169C37.7005 9.51979 37.7541 9.63819 37.7887 9.76269L40.0097 16.1157L44.5987 9.76269C44.6801 9.65279 44.7733 9.55219 44.8767 9.46269C45.0162 9.35864 45.1765 9.28598 45.3467 9.24969C45.6199 9.18352 45.8982 9.1407 46.1787 9.12169C46.52 9.09302 46.9823 9.07869 47.5657 9.07869C48.2197 9.07869 48.7427 9.09302 49.1347 9.12169C49.4305 9.13009 49.7229 9.18789 49.9997 9.29269C50.1843 9.37802 50.266 9.49502 50.2447 9.64369C50.1878 9.86668 50.0823 10.0743 49.9357 10.2517L43.3147 19.1007L46.7297 28.5657C46.7986 28.758 46.8134 28.9655 46.7727 29.1657C46.7394 29.2558 46.6861 29.3371 46.6168 29.4037C46.5475 29.4702 46.4641 29.5201 46.3727 29.5497C46.0682 29.6672 45.7467 29.7347 45.4207 29.7497C45.008 29.785 44.4747 29.8027 43.8207 29.8027C43.226 29.8027 42.7593 29.7884 42.4207 29.7597L42.4177 29.7627Z" fill="#0755E9"/>
<path d="M86.9168 4.58857H86.5268L86.0618 3.81257C86.024 3.74717 85.9819 3.68437 85.9358 3.62457C85.9001 3.57796 85.8588 3.53597 85.8128 3.49957C85.7721 3.46787 85.726 3.44381 85.6768 3.42857C85.6238 3.41318 85.5689 3.40577 85.5138 3.40657H85.2508V4.58857H84.9258V1.81257H85.7518C85.8654 1.81135 85.9785 1.8265 86.0878 1.85757C86.1852 1.88543 86.2761 1.93271 86.3548 1.99657C86.4311 2.05923 86.492 2.13861 86.5328 2.22857C86.5774 2.33065 86.5992 2.4412 86.5968 2.55257C86.5978 2.64345 86.5829 2.73381 86.5528 2.81957C86.5247 2.8984 86.4827 2.97156 86.4288 3.03557C86.3735 3.09906 86.3079 3.1528 86.2348 3.19457C86.1548 3.23957 86.069 3.27322 85.9798 3.29457V3.30257C86.0228 3.3213 86.0634 3.34514 86.1008 3.37357C86.1373 3.40137 86.1708 3.43287 86.2008 3.46757C86.234 3.50663 86.2647 3.54771 86.2928 3.59057C86.3228 3.63657 86.3561 3.68957 86.3928 3.74957L86.9168 4.58857ZM85.2508 2.10557V3.11257H85.6928C85.7696 3.11362 85.8461 3.10144 85.9188 3.07657C85.9849 3.05388 86.0457 3.01817 86.0978 2.97157C86.149 2.92453 86.1893 2.86684 86.2158 2.80257C86.2452 2.7316 86.2598 2.65538 86.2588 2.57857C86.2624 2.51348 86.2513 2.44841 86.2264 2.38818C86.2015 2.32794 86.1633 2.27408 86.1148 2.23057C85.9955 2.13987 85.8473 2.09546 85.6978 2.10557H85.2508Z" fill="#0755E9"/>
<path d="M85.7655 0.792578C85.2846 0.792578 84.8144 0.93523 84.4146 1.20248C84.0148 1.46974 83.7032 1.84959 83.5193 2.29397C83.3354 2.73835 83.2874 3.2273 83.3814 3.69895C83.4755 4.1706 83.7073 4.60375 84.0476 4.94362C84.3879 5.28348 84.8213 5.51477 85.2931 5.60823C85.7648 5.70169 86.2537 5.65312 86.6979 5.46867C87.142 5.28421 87.5215 4.97216 87.7883 4.57199C88.055 4.17182 88.1971 3.70151 88.1965 3.22058C88.1949 2.5766 87.9382 1.9595 87.4825 1.50442C87.0269 1.04934 86.4095 0.79337 85.7655 0.792578ZM85.7655 0.392578C86.3248 0.392578 86.8716 0.558437 87.3367 0.869182C87.8017 1.17993 88.1642 1.6216 88.3782 2.13835C88.5923 2.6551 88.6483 3.22372 88.5392 3.77229C88.43 4.32087 88.1607 4.82477 87.7652 5.22028C87.3697 5.61578 86.8658 5.88512 86.3172 5.99424C85.7686 6.10336 85.2 6.04735 84.6833 5.83331C84.1665 5.61927 83.7248 5.25679 83.4141 4.79173C83.1034 4.32667 82.9375 3.7799 82.9375 3.22058C82.9375 2.47055 83.2354 1.75123 83.7658 1.22088C84.2962 0.690527 85.0155 0.392578 85.7655 0.392578V0.392578Z" fill="#0755E9"/>
</svg>
